<svg xmlns="http://www.w3.org/2000/svg" width="1080" height="196" viewBox="0 0 1080 196">
<defs><marker id="arrow" viewBox="0 0 10 10" refX="9" refY="5" markerWidth="7" markerHeight="7" orient="auto-start-reverse"><path d="M 0 0 L 10 5 L 0 10 z" fill="#156082"/></marker></defs>
<rect width="100%" height="100%" fill="white"/><rect x="12" y="20" width="222" height="110" rx="5" fill="#dbf5f9" stroke="#009eda" stroke-width="3"/>
<text x="123.0" y="67.0" text-anchor="middle" font-family="Arial" font-size="24" fill="#042433">Original scan</text><text x="123.0" y="99.0" text-anchor="middle" font-family="Arial" font-size="18" fill="#484848">176 &#215; 208</text><line x1="239" y1="75" x2="285" y2="75" stroke="#156082" stroke-width="4" marker-end="url(#arrow)"/><rect x="290" y="20" width="222" height="110" rx="5" fill="#dbf5f9" stroke="#009eda" stroke-width="3"/>
<text x="401.0" y="67.0" text-anchor="middle" font-family="Arial" font-size="24" fill="#042433">Grayscale</text><text x="401.0" y="99.0" text-anchor="middle" font-family="Arial" font-size="18" fill="#484848">one channel</text><line x1="517" y1="75" x2="563" y2="75" stroke="#156082" stroke-width="4" marker-end="url(#arrow)"/><rect x="568" y="20" width="222" height="110" rx="5" fill="#dbf5f9" stroke="#009eda" stroke-width="3"/>
<text x="679.0" y="67.0" text-anchor="middle" font-family="Arial" font-size="24" fill="#042433">Resize</text><text x="679.0" y="99.0" text-anchor="middle" font-family="Arial" font-size="18" fill="#484848">128 &#215; 128</text><line x1="795" y1="75" x2="841" y2="75" stroke="#156082" stroke-width="4" marker-end="url(#arrow)"/><rect x="846" y="20" width="222" height="110" rx="5" fill="#dbf5f9" stroke="#009eda" stroke-width="3"/>
<text x="957.0" y="67.0" text-anchor="middle" font-family="Arial" font-size="24" fill="#042433">Normalize</text><text x="957.0" y="99.0" text-anchor="middle" font-family="Arial" font-size="18" fill="#484848">train mean and std</text><text x="540" y="172" text-anchor="middle" font-family="Arial" font-size="21" fill="#484848">Every image takes this path     &#183;     Training images then pass through augmentation as well</text></svg>
